<svg xmlns="http://www.w3.org/2000/svg" width="94.066" height="88.738" viewBox="0 0 94.066 88.738"><defs><style>.a{fill:#cee1f2;}.b{fill:#03519c;}.c{fill:#ec1d24;}</style></defs><g transform="translate(0 -14.5)"><path class="a" d="M37.719,86.677V83a5.5,5.5,0,0,1-5.512-5.5V52.865A18.342,18.342,0,0,1,50.527,34.5H39.372A18.372,18.372,0,0,0,21,52.872V83a3.69,3.69,0,0,0,3.678,3.674Z" transform="translate(-17.142 -16.326)"/><path class="b" d="M72.02,88.724H44.094a3.674,3.674,0,1,1,0-7.349H72.02a14.715,14.715,0,0,0,14.7-14.7V36.547a14.715,14.715,0,0,0-14.7-14.7H22.047a14.715,14.715,0,0,0-14.7,14.7V64.84a1.839,1.839,0,0,0,1.837,1.837H20.21a3.674,3.674,0,0,1,0,7.349H9.186A9.2,9.2,0,0,1,0,64.84V36.547A22.072,22.072,0,0,1,22.047,14.5H72.02A22.072,22.072,0,0,1,94.066,36.547V66.677A22.072,22.072,0,0,1,72.02,88.724ZM33.07,85.046A3.674,3.674,0,0,0,29.4,81.371H3.674a3.674,3.674,0,0,0,0,7.349H29.4A3.674,3.674,0,0,0,33.07,85.046ZM44.094,99.564a3.674,3.674,0,0,0-3.674-3.674H3.674a3.674,3.674,0,0,0,0,7.349H40.419A3.674,3.674,0,0,0,44.094,99.564Z" transform="translate(0 0)"/><path class="c" d="M114.061,167.1a22.022,22.022,0,0,1-13.372-4.5l-.018-.014L83.427,149.265a3.675,3.675,0,1,1,4.493-5.816l17.235,13.315a14.733,14.733,0,0,0,17.818-.007l17.8-13.511a3.674,3.674,0,0,1,4.443,5.854l-17.795,13.506A22,22,0,0,1,114.061,167.1Z" transform="translate(-66.934 -104.482)"/></g></svg>