<svg xmlns="http://www.w3.org/2000/svg" width="21" height="21" viewBox="0 0 21 21"><defs><style>.a{fill:#ec1d24;}</style></defs><g transform="translate(-62.355)"><path class="a" d="M249.59,21A1.591,1.591,0,0,1,248,19.409V10.595A10.5,10.5,0,1,1,258.464,21h-.01a10.377,10.377,0,0,1-4.666-1.091,2.538,2.538,0,0,0-2.929.481l-.144.144A1.591,1.591,0,0,1,249.59,21Zm3.068-4.539a5.708,5.708,0,0,1,2.548.6,7.226,7.226,0,0,0,3.25.757h.007a7.357,7.357,0,0,0,7.355-7.246,7.318,7.318,0,1,0-14.636,0c0,.005,0,.01,0,.015v6.067A5.717,5.717,0,0,1,252.659,16.461Z" transform="translate(-185.645)"/></g></svg>