<svg xmlns="http://www.w3.org/2000/svg" width="51.21" height="66.547" viewBox="0 0 51.21 66.547"><defs><style>.a{fill:#cee1f2;}.b{fill:#03519c;}</style></defs><g transform="translate(-59)"><path class="a" d="M137.467,34.947A14.953,14.953,0,0,1,147.8,20.727a14.947,14.947,0,1,0,0,28.44A14.953,14.953,0,0,1,137.467,34.947Z" transform="translate(-60.24 -17.401)"/><path class="b" d="M107.61,66.547a2.6,2.6,0,0,1-2.6-2.6A18.477,18.477,0,0,0,86.555,45.491h-3.9A18.477,18.477,0,0,0,64.2,63.947a2.6,2.6,0,0,1-5.2,0A23.682,23.682,0,0,1,82.655,40.292h3.9A23.682,23.682,0,0,1,110.21,63.947,2.6,2.6,0,0,1,107.61,66.547Zm-5.719-49A17.547,17.547,0,1,0,84.345,35.093,17.566,17.566,0,0,0,101.892,17.547Zm-5.2,0A12.348,12.348,0,1,1,84.345,5.2,12.362,12.362,0,0,1,96.693,17.547Z" transform="translate(0)"/></g></svg>