<svg xmlns="http://www.w3.org/2000/svg" width="76" height="124" viewBox="0 0 76 124"><defs><style>.a{fill:#fff;}</style></defs><circle class="a" cx="2" cy="2" r="2"/><circle class="a" cx="2" cy="2" r="2" transform="translate(24)"/><circle class="a" cx="2" cy="2" r="2" transform="translate(48)"/><circle class="a" cx="2" cy="2" r="2" transform="translate(72)"/><circle class="a" cx="2" cy="2" r="2" transform="translate(0 24)"/><circle class="a" cx="2" cy="2" r="2" transform="translate(24 24)"/><circle class="a" cx="2" cy="2" r="2" transform="translate(48 24)"/><circle class="a" cx="2" cy="2" r="2" transform="translate(72 24)"/><circle class="a" cx="2" cy="2" r="2" transform="translate(0 48)"/><circle class="a" cx="2" cy="2" r="2" transform="translate(24 48)"/><circle class="a" cx="2" cy="2" r="2" transform="translate(48 48)"/><circle class="a" cx="2" cy="2" r="2" transform="translate(72 48)"/><circle class="a" cx="2" cy="2" r="2" transform="translate(0 72)"/><circle class="a" cx="2" cy="2" r="2" transform="translate(24 72)"/><circle class="a" cx="2" cy="2" r="2" transform="translate(48 72)"/><circle class="a" cx="2" cy="2" r="2" transform="translate(72 72)"/><circle class="a" cx="2" cy="2" r="2" transform="translate(0 96)"/><circle class="a" cx="2" cy="2" r="2" transform="translate(24 96)"/><circle class="a" cx="2" cy="2" r="2" transform="translate(48 96)"/><circle class="a" cx="2" cy="2" r="2" transform="translate(72 96)"/><circle class="a" cx="2" cy="2" r="2" transform="translate(0 120)"/><circle class="a" cx="2" cy="2" r="2" transform="translate(24 120)"/><circle class="a" cx="2" cy="2" r="2" transform="translate(48 120)"/><circle class="a" cx="2" cy="2" r="2" transform="translate(72 120)"/></svg>